<?xml version="1.0" encoding="utf-8"?>
<!-- Generator: Adobe Illustrator 23.0.3, SVG Export Plug-In . SVG Version: 6.00 Build 0)  -->
<svg version="1.1" id="Layer_1" xmlns="http://www.w3.org/2000/svg" xmlns:xlink="http://www.w3.org/1999/xlink" x="0px" y="0px"
	 viewBox="0 0 307.7 78" style="enable-background:new 0 0 307.7 78;" xml:space="preserve">
<style type="text/css">
	.st0{fill:#FFFFFF;}
</style>
<g>
	<path class="st0" d="M112.6,31.3c-2.2-1.4-4.9-2.1-7.9-2.1c-2.9,0-5.5,0.7-7.6,2.2c-1.5,1-2.7,2.3-3.5,3.9V17.8
		c0-1.2-0.3-2-0.9-2.6s-1.5-0.9-2.6-0.9s-2,0.3-2.6,0.9c-0.6,0.6-0.9,1.5-0.9,2.6v42.8c0,1.1,0.3,2,0.9,2.6C88,63.7,88.9,64,90,64
		s1.9-0.3,2.5-0.9c0.6-0.6,0.9-1.5,0.9-2.6v-2.7c0.8,1.6,2,3,3.6,4.1c2.2,1.5,4.7,2.3,7.7,2.3s5.6-0.7,7.9-2.1
		c2.2-1.4,4-3.4,5.2-6.1c1.2-2.7,1.8-5.8,1.8-9.3c0-3.6-0.6-6.8-1.8-9.4C116.5,34.7,114.8,32.7,112.6,31.3z M111.3,53.3
		c-0.8,1.8-1.9,3.2-3.3,4.1c-1.4,0.9-3.1,1.4-5.1,1.4c-2.9,0-5.2-1-6.9-3.1c-1.8-2.1-2.6-5.1-2.6-9c0-2.6,0.4-4.9,1.2-6.7
		c0.8-1.8,1.9-3.2,3.4-4.1c1.5-0.9,3.1-1.4,5-1.4c2.9,0,5.2,1,7,3c1.7,2,2.6,5,2.6,9C112.5,49.3,112.1,51.5,111.3,53.3z"/>
	<path class="st0" d="M150.2,29.3c-1.2,0-2,0.3-2.6,0.9s-0.9,1.5-0.9,2.7V49c0,2.9-0.8,5.3-2.5,7c-1.6,1.8-3.8,2.7-6.4,2.7
		c-2.4,0-4.2-0.6-5.3-1.9c-1.1-1.3-1.7-3.3-1.7-6v-18c0-1.2-0.3-2.1-0.9-2.7c-0.6-0.6-1.5-0.9-2.6-0.9s-2,0.3-2.6,0.9
		s-0.9,1.5-0.9,2.7v17.7c0,3,0.5,5.6,1.4,7.6s2.3,3.5,4.1,4.5s4.1,1.5,6.8,1.5c2.8,0,5.2-0.7,7.2-2.1c1.5-1,2.6-2.3,3.5-4v2.4
		c0,1.1,0.3,2,0.9,2.6c0.6,0.6,1.4,0.9,2.5,0.9c2.3,0,3.4-1.2,3.4-3.5V32.8c0-1.2-0.3-2.1-0.9-2.7C152.1,29.5,151.3,29.3,150.2,29.3
		z"/>
	<path class="st0" d="M176.6,45l-6.6-1.3c-1.6-0.3-2.7-0.9-3.5-1.6c-0.7-0.7-1.1-1.7-1.1-2.8c0-1.5,0.6-2.7,1.8-3.6
		c1.2-0.9,3.1-1.4,5.5-1.4c1.3,0,2.7,0.2,4.1,0.6c1.4,0.4,2.7,1,4.1,1.9c0.6,0.3,1.2,0.5,1.8,0.4c0.5-0.1,1-0.3,1.4-0.7
		s0.6-0.8,0.7-1.4c0.1-0.5,0.1-1-0.1-1.6c-0.2-0.5-0.6-1-1.2-1.3c-1.5-1-3.2-1.8-5-2.3s-3.7-0.8-5.8-0.8c-2.7,0-5.1,0.4-7.2,1.3
		c-2.1,0.9-3.7,2.1-4.9,3.6c-1.2,1.6-1.7,3.4-1.7,5.5c0,2.4,0.7,4.3,2.2,5.8s3.6,2.6,6.5,3.2l6.6,1.3c1.7,0.4,2.9,0.9,3.7,1.6
		c0.8,0.7,1.2,1.6,1.2,2.8c0,1.5-0.6,2.7-1.9,3.5c-1.2,0.9-3.1,1.3-5.5,1.3c-1.6,0-3.3-0.2-4.9-0.6c-1.7-0.4-3.4-1.1-5.2-2.1
		c-0.6-0.3-1.2-0.4-1.7-0.3c-0.5,0.1-1,0.3-1.3,0.7s-0.6,0.9-0.6,1.4c-0.1,0.5,0,1.1,0.2,1.6s0.6,1,1.2,1.4c1.8,1.1,3.8,1.9,5.9,2.4
		c2.1,0.5,4.2,0.7,6.3,0.7c4.2,0,7.6-0.9,10.1-2.8c2.5-1.8,3.8-4.4,3.8-7.6c0-2.4-0.8-4.4-2.3-5.8C181.9,46.6,179.6,45.6,176.6,45z"
		/>
	<path class="st0" d="M219,47.7c0.5-0.4,0.7-1,0.7-1.8c0-2.6-0.3-4.9-1-7s-1.7-3.8-3-5.3s-2.9-2.6-4.7-3.3c-1.8-0.8-4-1.1-6.3-1.1
		c-3.2,0-6,0.7-8.5,2.2c-2.5,1.5-4.5,3.5-5.9,6.2c-1.4,2.6-2.1,5.7-2.1,9.2c0,3.6,0.7,6.7,2.2,9.3s3.5,4.6,6.2,6s5.8,2.1,9.5,2.1
		c1.9,0,4-0.3,6-0.8c2.1-0.5,3.9-1.3,5.5-2.4c0.7-0.5,1.2-1,1.5-1.6s0.4-1.1,0.3-1.7c-0.1-0.6-0.3-1-0.7-1.4s-0.9-0.6-1.5-0.6
		s-1.3,0.2-2.1,0.6c-1.4,0.9-2.9,1.5-4.4,1.9s-3,0.6-4.4,0.6c-3.7,0-6.4-1-8.4-3.1c-1.6-1.8-2.6-4.2-2.8-7.4h22
		C217.8,48.2,218.5,48,219,47.7z M199.4,35.6c1.5-1,3.3-1.5,5.5-1.5c1.9,0,3.6,0.4,4.9,1.3c1.3,0.9,2.3,2.1,3,3.7
		c0.6,1.4,0.9,3,1,4.9H195c0.2-1.5,0.5-2.9,1-4.2C196.7,38,197.9,36.6,199.4,35.6z"/>
	<path class="st0" d="M247.3,48c-1.5-1.4-3.8-2.4-6.8-3l-6.6-1.3c-1.6-0.3-2.7-0.9-3.5-1.6c-0.7-0.7-1.1-1.7-1.1-2.8
		c0-1.5,0.6-2.7,1.8-3.6c1.2-0.9,3.1-1.4,5.5-1.4c1.3,0,2.7,0.2,4.1,0.6c1.4,0.4,2.7,1,4.1,1.9c0.6,0.3,1.2,0.5,1.8,0.4
		c0.5-0.1,1-0.3,1.4-0.7s0.6-0.8,0.7-1.4c0.1-0.5,0.1-1-0.1-1.6c-0.2-0.5-0.6-1-1.2-1.3c-1.5-1-3.2-1.8-5-2.3s-3.7-0.8-5.8-0.8
		c-2.7,0-5.1,0.4-7.2,1.3c-2.1,0.9-3.7,2.1-4.9,3.6c-1.2,1.6-1.7,3.4-1.7,5.5c0,2.4,0.7,4.3,2.2,5.8s3.6,2.6,6.5,3.2l6.6,1.3
		c1.7,0.4,2.9,0.9,3.7,1.6c0.8,0.7,1.2,1.6,1.2,2.8c0,1.5-0.6,2.7-1.9,3.5c-1.2,0.9-3.1,1.3-5.5,1.3c-1.6,0-3.3-0.2-4.9-0.6
		c-1.7-0.4-3.4-1.1-5.2-2.1c-0.6-0.3-1.2-0.4-1.7-0.3c-0.5,0.1-1,0.3-1.3,0.7s-0.6,0.9-0.6,1.4c-0.1,0.5,0,1.1,0.2,1.6
		s0.6,1,1.2,1.4c1.8,1.1,3.8,1.9,5.9,2.4c2.1,0.5,4.2,0.7,6.3,0.7c4.2,0,7.6-0.9,10.1-2.8c2.5-1.8,3.8-4.4,3.8-7.6
		C249.6,51.4,248.8,49.5,247.3,48z"/>
</g>
<g>
	<path class="st0" d="M275.8,37.9c-0.4,0-0.6,0.1-0.8,0.3c-0.2,0.2-0.3,0.5-0.3,0.9v14.2c0,2.9-0.8,5.2-2.5,6.9
		c-1.6,1.8-3.8,2.6-6.4,2.6c-2.4,0-4.2-0.7-5.3-2c-1.1-1.3-1.7-3.4-1.7-6.1V39.1c0-0.4-0.1-0.7-0.3-0.9c-0.2-0.2-0.5-0.3-0.8-0.3
		c-0.4,0-0.6,0.1-0.8,0.3c-0.2,0.2-0.3,0.5-0.3,0.9v15.8c0,2.2,0.3,4.1,1,5.5c0.7,1.5,1.7,2.6,3.1,3.4c1.4,0.8,3.1,1.1,5.2,1.1
		c2.2,0,4.2-0.6,6-1.8c1.3-0.9,2.3-2.1,3-3.5v4c0,0.4,0.1,0.7,0.3,0.9c0.2,0.2,0.5,0.3,0.8,0.3c0.7,0,1.1-0.4,1.1-1.2V39.1
		c0-0.4-0.1-0.7-0.3-0.9C276.4,38,276.1,37.9,275.8,37.9z"/>
	<path class="st0" d="M304.2,38.2c-0.2-0.2-0.4-0.3-0.8-0.3s-0.6,0.1-0.8,0.2c-0.2,0.1-0.3,0.4-0.5,0.7l-9.7,23.4l-9.7-23.4
		c-0.1-0.3-0.3-0.5-0.5-0.7s-0.4-0.2-0.7-0.2c-0.4,0-0.6,0.1-0.8,0.3c-0.2,0.2-0.3,0.4-0.4,0.7c0,0.3,0,0.6,0.2,1l10.6,24.9
		l-3.5,8.1c-0.1,0.3-0.2,0.6-0.2,0.9s0.1,0.5,0.3,0.7c0.2,0.2,0.4,0.3,0.8,0.3s0.6-0.1,0.8-0.2c0.2-0.1,0.3-0.4,0.5-0.8l14.4-33.9
		c0.1-0.3,0.2-0.6,0.2-0.9C304.5,38.6,304.4,38.4,304.2,38.2z"/>
</g>
<g>
	<path class="st0" d="M38.3,1.7C17.7,1.7,1,18.4,1,39s16.7,37.3,37.3,37.3S75.6,59.6,75.6,39C75.5,18.4,58.8,1.7,38.3,1.7z
		 M62.3,30.9c0,1.1-0.9,2-2,2s-2-0.9-2-2V28h-1.4v28.2c0,2.3-1.9,4.1-4.1,4.1h-2.2v2.4c0,1.1-0.9,2-2,2s-2-0.9-2-2v-2.4H30.1v2.4
		c-0.1,1.1-0.9,2-2,2s-2-0.9-2-2v-2.4h-2.3c-2.3,0-4.1-1.9-4.1-4.1V28.1h-1.4V31c0,1-0.9,1.9-1.9,1.9c-1.1,0-2-0.9-2-2V26
		c0-1.1,0.9-2,2-2h3.4v-3.2c0-2.3,1.9-4.1,4.1-4.1H53c2.3,0,4.1,1.9,4.1,4.1v3.1h3.4c1.1,0,2,0.9,1.9,2.1v4.9H62.3z"/>
	<polygon class="st0" points="23.7,41.6 53,41.6 53,20.8 23.7,20.8 	"/>
	<path class="st0" d="M23.7,45.6v10.9H53l-0.1-10.9H23.7z M30.7,53.6h-1.6c-1.1,0-2-0.9-2-2s0.9-2,2-2h1.6c1.1,0,2,0.9,2,2
		C32.8,52.7,31.8,53.6,30.7,53.6z M47.5,53.6h-1.6c-1.1,0-2-0.9-2-2s0.9-2,2-2h1.6c1.2,0,2,0.9,2,2C49.6,52.7,48.6,53.6,47.5,53.6z"
		/>
</g>
</svg>
