<?xml version="1.0" encoding="utf-8"?>
<!-- Generator: Adobe Illustrator 23.0.3, SVG Export Plug-In . SVG Version: 6.00 Build 0)  -->
<svg version="1.1" id="Layer_1" xmlns="http://www.w3.org/2000/svg" xmlns:xlink="http://www.w3.org/1999/xlink" x="0px" y="0px"
	 viewBox="0 0 162.9 162.9" style="enable-background:new 0 0 162.9 162.9;" xml:space="preserve">
<style type="text/css">
	.st0{opacity:0.5;fill:#058585;enable-background:new    ;}
	.st1{fill:#834F4F;}
	.st2{fill:#673737;}
	.st3{fill:#F36F21;}
	.st4{fill:#F6893F;}
	.st5{fill:#F89D5E;}
	.st6{fill:#FBB789;}
	.st7{fill:#E15D26;}
	.st8{fill:#048A85;}
	.st9{fill:#10A5A6;}
	.st10{fill:#FFFFFF;}
	.st11{fill:#C0BFBF;}
	.st12{fill:#E0E1E0;}
	.st13{fill:#4F2626;}
	.st14{fill:#8BD3D8;}
	.st15{fill:#FFCAA6;}
	.st16{fill:#4F2525;}
	.st17{fill:#FF316C;}
	.st18{fill:#FFAD97;}
	.st19{fill:#E21E60;}
	.st20{fill:#4D4D4D;}
	.st21{fill:#3A3A3A;}
	.st22{fill:#FFED43;}
	.st23{fill:#E5BF1F;}
	.st24{fill:#CCA70E;}
	.st25{fill:#848484;}
	.st26{fill:#A8A8A8;}
	.st27{fill:#C9C9C9;}
	.st28{fill:#0AA5A5;}
	.st29{fill:#028985;}
	.st30{fill:#824E4E;}
</style>
<g>
	<polygon class="st0" points="58.2,119.1 33,133.9 23.4,128.5 48.9,113.7 	"/>
	<polygon class="st0" points="103.6,92.9 78.4,107.7 68.9,102.2 94.4,87.4 	"/>
	<ellipse class="st0" cx="60.8" cy="112.6" rx="3.8" ry="2"/>
	<ellipse class="st0" cx="106.9" cy="86.2" rx="3.8" ry="2"/>
	<g>
		<polygon class="st1" points="12.6,74.4 10.9,73.4 10.9,137.4 12.6,138.3 		"/>
		<polygon class="st2" points="12.6,74.4 14.2,73.4 14.2,137.4 12.6,138.3 		"/>
	</g>
	<g>
		<polygon class="st1" points="64.6,44.4 62.9,43.4 62.9,107.4 64.6,108.2 		"/>
		<polygon class="st2" points="64.6,44.4 66.2,43.4 66.2,107.4 64.6,108.2 		"/>
	</g>
	<g>
		<polygon class="st1" points="108.8,22.1 108.8,80.8 110.4,81.7 110.4,22.1 		"/>
		<polygon class="st2" points="110.4,22.1 110.4,81.7 112.1,80.8 112.1,22.1 		"/>
	</g>
	<g>
		<polygon class="st2" points="45.8,101.8 13.2,83.1 13.6,82.4 44.9,100.4 44.9,95.3 45.8,95.3 		"/>
	</g>
	<g>
		<polygon class="st2" points="29,101.5 13.6,92.7 13.2,93.4 29,102.5 		"/>
	</g>
	<g>
		<polygon class="st2" points="29,107.3 13.6,98.5 13.2,99.3 29,108.3 		"/>
	</g>
	<g>
		<rect x="27.3" y="83.8" class="st2" width="0.9" height="7.2"/>
	</g>
	<g>
		<rect x="17.2" y="95.4" class="st2" width="0.9" height="6"/>
	</g>
	<polygon class="st2" points="147.3,39.7 147.3,42.4 45.5,101.2 45.9,101.9 148.1,42.9 148.1,39.7 	"/>
	<polygon class="st2" points="114.6,20.9 114.6,23.6 12.8,82.5 13.3,83.2 115.5,24.1 115.5,20.9 	"/>
	<g>
		<path class="st3" d="M6.4,73.1v2.5c0,0,8.2,1.9,16.1,6C33.9,87.6,46.8,99,46.8,99v-2c0,0,0.4-11.4-10.2-18.5
			C25.8,71.5,6.4,73.1,6.4,73.1z"/>
		<g>
			<path class="st4" d="M141.6,31.4L39.9,90.2l-2-1.2c5.8,4.4,8.8,7.4,8.8,7.4l102.4-59.1C149.1,37.2,145.8,34.6,141.6,31.4z"/>
			<path class="st4" d="M109.2,13.8L6.4,73.1c0,0,4.2,1,8.9,2.8l102.5-59.2C113.3,15,109.2,13.8,109.2,13.8z"/>
			<g>
				<path class="st5" d="M117.8,16.7L15.2,75.8c2.6,1,5.4,2.1,7.7,3.4c0.3,0.2,0.6,0.3,0.9,0.5L125.6,20
					C123.4,18.9,120.5,17.7,117.8,16.7z"/>
				<path class="st5" d="M133.6,25.4L31.8,84.7c2.3,1.5,4.3,3,6.1,4.3l1.7,1.3l102-58.9C139.1,29.5,136.2,27.3,133.6,25.4z"/>
				<path class="st6" d="M125.9,20.3c-0.1-0.1-0.2-0.1-0.3-0.2L23.8,79.8c2.9,1.7,5.6,3.3,7.9,4.9l101.8-59.3
					C130.6,23.2,127.8,21.3,125.9,20.3z"/>
			</g>
		</g>
		<g>
			<path class="st3" d="M61.4,87.9c-0.1-0.1-8.7-8.2-20.9-15.5c-8.2-4.9-19.3-7.9-19.4-7.9l1.4-0.8c0.1,0,10.3,2.7,18.7,7.7
				c12.2,7.4,21.2,15.8,21.3,15.9L61.4,87.9z"/>
		</g>
		<g>
			<path class="st3" d="M78.7,78c-0.1-0.1-8.7-8.2-20.9-15.4c-8.2-5-19.4-7.9-19.5-7.9l1.4-0.8c0.1,0,10.3,2.7,18.7,7.7
				c12.3,7.3,21.2,15.7,21.3,15.8L78.7,78z"/>
		</g>
		<g>
			<path class="st3" d="M96.3,67.8c-0.1-0.1-8.8-8.2-20.9-15.4c-8.2-4.9-19.3-7.9-19.4-7.9l1.4-0.8c0.1,0,10.3,2.7,18.7,7.7
				c12.1,7.3,21.1,15.7,21.2,15.8L96.3,67.8z"/>
		</g>
		<g>
			<path class="st3" d="M113.7,57.7c-0.1-0.1-8.7-8.2-20.9-15.4c-8.2-4.9-19.3-7.9-19.4-7.9l1.4-0.8c0.1,0,10.3,2.7,18.7,7.7
				c12.3,7.3,21.2,15.7,21.3,15.8L113.7,57.7z"/>
		</g>
		<g>
			<path class="st3" d="M130.9,47.7c-0.1-0.1-8.7-8.2-20.9-15.4c-8.2-4.9-19.3-7.9-19.4-7.9l1.4-0.8c0.1,0,10.3,2.7,18.7,7.7
				C123,38.6,131.9,47,132,47.1L130.9,47.7z"/>
		</g>
		<g>
			<path class="st3" d="M148.5,37.6c-0.1-0.1-8.7-8.2-20.9-15.4c-8.2-4.9-19.3-7.9-19.4-7.9l1.4-0.8c0.1,0,10.3,2.7,18.7,7.7
				c12.3,7.3,21.2,15.7,21.3,15.8L148.5,37.6z"/>
		</g>
		<polygon class="st7" points="46.7,96.4 46.7,99 149.5,39.7 149.5,37 		"/>
	</g>
	<g>
		<path class="st8" d="M63.6,101.6l0.1,11c0,0.7-1.3,1.4-2.9,1.4c-1.6,0-2.9-0.6-2.9-1.3l-0.1-11L63.6,101.6z"/>
		<path class="st2" d="M57.8,102c0,0.7,1.3,1.3,2.9,1.3c1.6,0,2.9-0.6,2.9-1.4c0-0.7-1.3-1.3-2.9-1.3S57.8,101.3,57.8,102z"/>
		
			<rect x="57.9" y="101.8" transform="matrix(1 -7.158330e-03 7.158330e-03 1 -0.7276 0.4376)" class="st2" width="5.7" height="0.2"/>
		<path class="st9" d="M57.8,101.6L57.8,101.6c0.1-1.6,1.3-2.8,2.8-2.8s2.8,1.2,2.9,2.7c0,0,0,0,0,0.1l0,0c0,0,0,0,0,0.1l0,0l0,0
			c-0.1,0.7-1.3,1.3-2.8,1.3C59.2,102.9,58,102.4,57.8,101.6L57.8,101.6L57.8,101.6C57.8,101.7,57.8,101.6,57.8,101.6L57.8,101.6z"
			/>
		<path class="st10" d="M58.8,105.6c0.5,0.2,1.2,0.4,2,0.4c1.6,0,2.9-0.6,2.9-1.4v5.5c0,0.7-1.2,1.3-2.7,1.4l0,0h-0.1l0,0l0,0h-0.1
			l0,0c-0.7,0-1.4-0.1-1.8-0.4L58.8,105.6z"/>
		<g>
			<path class="st2" d="M63.6,108.1c0,0.4,0,0.6,0,0.7c0,0.8-1.3,1.4-2.9,1.4h-0.1v-0.7h0.1C62.3,109.4,63.6,108.8,63.6,108.1z"/>
		</g>
		<g>
			<path class="st2" d="M63.6,106.3c0,0.4,0,0.6,0,0.7c0,0.8-1.3,1.4-2.9,1.4h-0.1v-0.7h0.1C62.3,107.7,63.6,107.1,63.6,106.3z"/>
		</g>
		<path class="st2" d="M61.1,101.2c0,0.5,0.4,0.9,0.8,0.9c0.5,0,0.8-0.4,0.8-0.9s-0.4-0.9-0.8-0.9C61.5,100.4,61.1,100.8,61.1,101.2
			z"/>
	</g>
	<g>
		<path class="st8" d="M109.7,75l0.1,11c0,0.7-1.3,1.4-2.9,1.4s-2.9-0.6-2.9-1.3l-0.1-11L109.7,75z"/>
		<path class="st2" d="M104,75.4c0,0.7,1.3,1.3,2.9,1.3s2.9-0.6,2.9-1.4c0-0.7-1.3-1.3-2.9-1.3C105.2,74.1,103.9,74.7,104,75.4z"/>
		
			<rect x="103.9" y="75.1" transform="matrix(1 -7.158455e-03 7.158455e-03 1 -0.5358 0.7663)" class="st2" width="5.7" height="0.2"/>
		<path class="st9" d="M104,75L104,75c0.1-1.6,1.3-2.8,2.8-2.8s2.8,1.2,2.9,2.7c0,0,0,0,0,0.1l0,0c0,0,0,0,0,0.1l0,0l0,0
			c-0.1,0.7-1.3,1.3-2.8,1.3C105.3,76.4,104.1,75.8,104,75L104,75L104,75C104,75.1,104,75.1,104,75C104,75.1,104,75,104,75z"/>
		<path class="st10" d="M104.9,79.1c0.5,0.2,1.2,0.4,2,0.4c1.6,0,2.9-0.6,2.9-1.4v5.5c0,0.7-1.2,1.3-2.7,1.4l0,0H107l0,0l0,0h-0.1
			l0,0c-0.7,0-1.4-0.1-1.8-0.4L104.9,79.1z"/>
		<g>
			<path class="st2" d="M109.7,81.6c0,0.4,0,0.6,0,0.7c0,0.8-1.3,1.4-2.9,1.4h-0.1V83h0.1C108.4,82.9,109.7,82.3,109.7,81.6z"/>
		</g>
		<g>
			<path class="st2" d="M109.7,79.8c0,0.4,0,0.6,0,0.7c0,0.8-1.3,1.4-2.9,1.4h-0.1v-0.7h0.1C108.4,81.2,109.7,80.6,109.7,79.8z"/>
		</g>
		<path class="st2" d="M107.2,74.7c0,0.5,0.4,0.9,0.8,0.9c0.5,0,0.8-0.4,0.8-0.9s-0.4-0.9-0.8-0.9S107.2,74.2,107.2,74.7z"/>
	</g>
	<g>
		<g>
			<polygon class="st10" points="70.4,95.1 70.4,102 71.2,102.4 71.2,95.6 			"/>
			<polygon class="st11" points="71.9,95.3 71.9,102 71.2,102.4 71.2,95.7 			"/>
		</g>
		<g>
			<polygon class="st10" points="77.7,99.4 77.7,106.2 78.5,106.7 78.5,99.8 			"/>
			<polygon class="st11" points="79.2,99.5 79.2,106.2 78.5,106.7 78.5,100 			"/>
		</g>
		<g>
			<polygon class="st12" points="93.3,81.8 93.3,88.6 94.1,89.1 94.1,82.2 			"/>
			<polygon class="st1" points="94.9,81.9 94.9,88.6 94.1,89.1 94.1,82.4 			"/>
		</g>
		<g>
			<polygon class="st10" points="100.6,86.1 100.6,92.9 101.4,93.4 101.4,86.5 			"/>
			<polygon class="st11" points="102.2,86.2 102.2,92.9 101.4,93.4 101.4,86.7 			"/>
		</g>
		<g>
			<polygon class="st1" points="78.5,99.1 70.4,94.4 94.1,80.6 102.2,85.3 			"/>
			<polygon class="st2" points="70.4,94.4 70.4,95.5 78.5,100.2 78.5,99.1 			"/>
			<polygon class="st13" points="78.5,99.1 78.5,100.2 102.2,86.4 102.2,85.3 			"/>
		</g>
		<polygon class="st2" points="72.7,95.7 73,95.9 96.8,82.2 96.4,82 		"/>
		<polygon class="st2" points="75.6,97.4 75.9,97.7 99.8,83.9 99.4,83.7 		"/>
	</g>
	<g>
		<g>
			<polygon class="st10" points="24.9,121.6 24.9,128.4 25.7,128.8 25.7,122 			"/>
			<polygon class="st11" points="26.4,121.7 26.4,128.4 25.7,128.8 25.7,122.1 			"/>
		</g>
		<g>
			<polygon class="st10" points="32.2,125.8 32.2,132.6 33,133.1 33,126.2 			"/>
			<polygon class="st11" points="33.7,125.9 33.7,132.6 33,133.1 33,126.4 			"/>
		</g>
		<g>
			<polygon class="st12" points="47.8,108.2 47.8,115 48.6,115.5 48.6,108.6 			"/>
			<polygon class="st1" points="49.4,108.3 49.4,115 48.6,115.5 48.6,108.8 			"/>
		</g>
		<g>
			<polygon class="st10" points="55.2,112.5 55.2,119.3 55.9,119.8 55.9,112.9 			"/>
			<polygon class="st11" points="56.7,112.6 56.7,119.3 55.9,119.8 55.9,113.1 			"/>
		</g>
		<g>
			<polygon class="st1" points="33,125.5 24.9,120.8 48.6,107.1 56.7,111.7 			"/>
			<polygon class="st2" points="24.9,120.8 24.9,121.9 33,126.6 33,125.5 			"/>
			<polygon class="st13" points="33,125.5 33,126.6 56.7,112.8 56.7,111.7 			"/>
		</g>
		<polygon class="st2" points="27.2,122.1 27.5,122.3 51.3,108.6 50.9,108.4 		"/>
		<polygon class="st2" points="30.2,123.8 30.5,124.1 54.3,110.3 53.9,110.1 		"/>
	</g>
	<g>
		<polygon class="st9" points="21.1,108.6 41.4,120.4 41.4,104.4 21.1,92.7 		"/>
		<g>
			<polygon class="st10" points="35.8,112.8 22.4,105 22.4,106.4 35.8,114.1 			"/>
			<polygon class="st10" points="40,115.2 36.5,113.2 36.5,114.6 40,116.6 			"/>
		</g>
		<g>
			<polygon class="st10" points="35.8,109.8 22.4,102 22.4,103.4 35.8,111.1 			"/>
			<polygon class="st10" points="40,112.2 36.5,110.2 36.5,111.6 40,113.6 			"/>
		</g>
		<g>
			<polygon class="st10" points="35.8,106.8 22.4,99 22.4,100.4 35.8,108.1 			"/>
			<polygon class="st10" points="40,109.2 36.5,107.2 36.5,108.6 40,110.6 			"/>
		</g>
		<g>
			<polygon class="st10" points="35.8,103.8 22.4,96 22.4,97.4 35.8,105.2 			"/>
			<polygon class="st10" points="40,106.2 36.5,104.2 36.5,105.6 40,107.6 			"/>
		</g>
		<polygon class="st8" points="41.4,104.4 41.4,120.4 43,119.4 43,103.5 		"/>
		<polygon class="st14" points="21.1,92.7 41.4,104.4 43,103.5 22.7,91.8 		"/>
	</g>
</g>
<g>
	<g>
		<path class="st15" d="M117.3,86.9c0,0.1-0.2,1.7-0.4,4.7c-0.1,2.3-0.2,3.8-0.3,5.5c0,0.8,0.3,2.1,0.7,2.4c0.5,0.3,1.1-0.7,1.4-2
			c0.1-0.6-0.3-1.8-0.1-2.7c0.7-3.5,1.1-7,0.9-6.7L117.3,86.9z"/>
		<path class="st16" d="M121.7,73.3c0,0,0.9-2.3,3.1-1.3c2.2,1,2.3,5.3,2.5,6.6c0.3,1.3,0.4,6.1,0.4,6.1l-3.2-0.7
			C124.5,84.1,120.6,77.1,121.7,73.3z"/>
		<path class="st17" d="M119.5,79.1c-1.1,0.5-2.5,3.1-2.4,7c0,1.2-0.2,2.8-0.3,3.4c0.6,0.6,1.4,0.9,2.3,0.4c1.2-1-0.8-4.3-0.8-4.3
			l3.3-6.6C121.7,79.1,120.8,78.5,119.5,79.1z"/>
		<path class="st18" d="M118.4,101.7c0,0,0.4,2.5,0.4,3.6c0,1.1,0,1.6,0.3,3c0.2,1.3,0.6,6.5,0.6,8.2c0,1.7-1,3.3-1.4,3.9
			c-0.4,0.6,0.9,1.6,1.8,0.7c0.9-0.9,1-1.1,1.6-1.4c0.5-0.3,0.9-1.5,0.5-2.9c-0.4-1.4-0.2-4,0.2-6.4c0.4-2.3-0.2-5.3,0.1-6
			C122.7,103.8,118.4,101.7,118.4,101.7z"/>
		<path class="st16" d="M118.2,120.4c0,0-1.2,1-1.6,1.4c-0.4,0.5,0.8,1.2,2,0.8c1.1-0.4,2.1-1.5,3-2.3c0.9-0.8,1.1-1.1,1.1-2
			c0-0.4-0.5-0.9-0.5-0.9s-0.3,1.9-1.6,2.6C119.4,120.8,118.9,120.9,118.2,120.4z"/>
		<path class="st15" d="M122,103.7c0,0,0.1,2.5,0.2,3.6c0,1.1,0.2,1.5,0.5,2.7c0.3,1.3,0.6,6.7,0.6,8.4c0,1.7-1,3.3-1.4,3.9
			c-0.4,0.6,0.9,1.6,1.8,0.7c0.9-0.9,1-1.1,1.6-1.4c0.5-0.3,0.9-1.5,0.5-2.9c-0.4-1.4-0.2-4,0.2-6.4c0.4-2.3-0.3-5.3-0.1-6.1
			c0.4-1.8,1.4-4.6,0.4-5.2C125.2,100.7,122,103.7,122,103.7z"/>
		<path class="st16" d="M121.9,122.5c0,0-1.2,1-1.6,1.4c-0.4,0.5,0.8,1.2,2,0.8c1.1-0.4,2.1-1.5,3-2.3c0.9-0.8,1.1-1.1,1.1-2
			c0-0.4-0.5-0.9-0.5-0.9s-0.3,1.9-1.6,2.6C123,122.8,122.5,122.9,121.9,122.5z"/>
		<path class="st16" d="M118,92.1c0,0-0.5,0.6-0.5,3.2c0,0.8,0.1,8,0.1,8s2.8,2.8,4.6,2.9c1.8,0.1,5.1-1,5.1-1s0.8-9.9-0.1-11.8
			C126.2,91.5,118,92.1,118,92.1z"/>
		<path class="st19" d="M127.6,82.8c-0.2-0.9-2.9-2.7-2.9-2.7s-1.5,1.2-2,1.6c-0.5,0.4-1.3,0-0.8-1.4c0.2-0.5-0.1-1.8-0.1-1.8
			s-0.2-0.1-0.5-0.1c-0.5,0.5-1.4,1.9-1.8,2.4c-0.5,0.5-2.3,2.2-1.8,4c0.2,0.5,0.3,1,0.6,1.6c0.3,0.7,0.9,1.8,0.6,2.5
			c-0.9,2.5-1.4,4.4-1.4,4.4s2.5,1.9,4.6,2.1c3.3,0.4,5.2-1.4,5.2-1.4c-0.2-0.9-2-5-2-6.6C125.4,87.3,128.3,85.7,127.6,82.8z"/>
		<g>
			<path class="st18" d="M121.6,78.6c0,0-0.2,0.4-0.3,0.9c0,0.5-2.4,2.6-0.8,3.6c1.4,0.8,4.1-3.1,4.1-3.1s-0.4-1-0.4-1.8
				c-0.1-1.3,0.1-2.8,0.1-2.8L121.6,78.6z"/>
			<path class="st15" d="M123.2,73.2c-1-0.7-3.4-0.8-4.1,1.6c-0.8,2.6,1.7,5.6,2.9,5c0.7-0.3,2.2-1.6,2.5-2.9
				C124.8,75.5,124,73.8,123.2,73.2z"/>
			<path class="st16" d="M124.7,73.9c-0.2-0.8-0.8-1.4-1.5-1.6c-1.4-0.5-2.4-0.6-3.6,0.7c-0.8,0.8-0.9,1.6-0.9,3c0,0,0.9,1.1,3,1.2
				c1,0.1,2.3-0.8,2.6,0.4C125.1,76.2,124.9,74.8,124.7,73.9z"/>
		</g>
		<path class="st15" d="M127,89.6c0,0.1-0.3,1.7-1.4,4.5c-0.8,2.1-1.3,3.6-1.9,5.1c-0.3,0.8-0.4,2.1,0,2.5c0.4,0.4,1.3-0.3,2-1.5
			c0.3-0.6,0.2-1.8,0.7-2.6c1.7-3.2,3.1-6.3,2.8-6.1L127,89.6z"/>
		<path class="st17" d="M126.8,89.8c-0.4,2.2-0.7,2.5-1.1,4c0.7,0.7,1.8,1.1,2.5,1.1c0.6-1.5,1.6-2.9,1.6-4.7c0-1.7-0.6-3.7-1.5-6.3
			c-0.5-1.5-1.3-2.3-2-2.6c-0.5-0.2-1.3,1.1-1.4,2.1C124.5,85.5,126.4,88.4,126.8,89.8z"/>
		<path class="st15" d="M123,77.3c0,0,0.1-0.6,0.6-0.9c0.5-0.3,0.6,0.8,0.2,1.2C123.5,78.1,123,77.3,123,77.3z"/>
	</g>
	<g>
		<g>
			<path class="st10" d="M128.6,120.5c-0.1,0-0.2,0-0.3-0.1c-0.2-0.1-0.4-0.4-0.4-0.8v-16.4c0-0.6,0.4-1.4,0.9-1.7l1.4-0.8
				c0.3-0.2,0.5-0.2,0.7,0c0.2,0.1,0.4,0.4,0.4,0.8v16.4c0,0.7-0.4,1.4-0.9,1.7l-1.4,0.8C128.9,120.5,128.8,120.5,128.6,120.5z
				 M130.7,101.1c-0.1,0-0.1,0-0.2,0.1l-1.4,0.8c-0.3,0.2-0.6,0.8-0.6,1.2v16.4c0,0.2,0.1,0.4,0.1,0.4c0.1,0,0.2,0,0.2,0l1.4-0.8
				c0.3-0.2,0.6-0.8,0.6-1.2v-16.4C130.9,101.3,130.8,101.1,130.7,101.1C130.7,101.1,130.7,101.1,130.7,101.1z"/>
		</g>
		<g>
			<g>
				<path class="st20" d="M127.8,123.9c0,0.4-0.2,0.8-0.5,1c-0.3,0.2-0.5,0-0.5-0.4c0-0.4,0.2-0.8,0.5-1
					C127.5,123.3,127.8,123.5,127.8,123.9z"/>
				<polygon class="st20" points="127.9,123.7 127.6,123.4 126.9,124.9 127.3,125.1 				"/>
				<path class="st21" d="M128.2,124.1c0,0.4-0.2,0.8-0.5,1c-0.3,0.2-0.5,0-0.5-0.4s0.2-0.8,0.5-1
					C127.9,123.5,128.2,123.7,128.2,124.1z"/>
				<path class="st10" d="M127.9,124.2c0,0.2-0.1,0.4-0.3,0.5c-0.1,0.1-0.3,0-0.3-0.2c0-0.2,0.1-0.4,0.3-0.5
					C127.8,124,127.9,124.1,127.9,124.2z"/>
			</g>
			<g>
				<path class="st20" d="M131.6,126.2c0,0.4-0.2,0.8-0.5,1c-0.3,0.2-0.5,0-0.5-0.4c0-0.4,0.2-0.8,0.5-1
					C131.4,125.6,131.6,125.8,131.6,126.2z"/>
				<polygon class="st20" points="131.8,126 131.4,125.7 130.8,127.2 131.2,127.4 				"/>
				<path class="st21" d="M132,126.4c0,0.4-0.2,0.8-0.5,1c-0.3,0.2-0.5,0-0.5-0.4c0-0.4,0.2-0.8,0.5-1
					C131.8,125.8,132,126,132,126.4z"/>
				<path class="st10" d="M131.8,126.5c0,0.2-0.1,0.4-0.3,0.5c-0.1,0.1-0.3,0-0.3-0.2c0-0.2,0.1-0.4,0.3-0.5
					C131.7,126.3,131.8,126.4,131.8,126.5z"/>
			</g>
			<g>
				<path class="st20" d="M137.7,122.6c0,0.4-0.2,0.8-0.5,1c-0.3,0.2-0.5,0-0.5-0.4s0.2-0.8,0.5-1
					C137.5,122.1,137.7,122.3,137.7,122.6z"/>
				<polygon class="st20" points="137.9,122.4 137.5,122.2 136.9,123.6 137.3,123.9 				"/>
				<path class="st21" d="M138.2,122.9c0,0.4-0.2,0.8-0.5,1c-0.3,0.2-0.5,0-0.5-0.4c0-0.4,0.2-0.8,0.5-1
					C137.9,122.3,138.2,122.5,138.2,122.9z"/>
				<path class="st10" d="M137.9,123c0,0.2-0.1,0.4-0.3,0.5s-0.3,0-0.3-0.2c0-0.2,0.1-0.4,0.3-0.5
					C137.8,122.7,137.9,122.8,137.9,123z"/>
			</g>
			<g>
				<polygon class="st22" points="127.1,112.4 127.3,123.6 131,125.7 131.1,112.5 				"/>
				<path class="st22" d="M134.2,109.2v10.3c0,0.5-0.2,0.9-0.6,1.1l-5,2.9c-0.8,0.5-1.9-0.1-1.9-1.1v-10.3c0-0.5,0.2-0.9,0.6-1.1
					l5-2.9C133.1,107.6,134.2,108.2,134.2,109.2z"/>
				<polygon class="st22" points="133.4,108.1 137.2,110.2 133.5,113 				"/>
				<path class="st23" d="M137.9,111.4v10.3c0,0.5-0.2,0.9-0.6,1.1l-5,2.9c-0.8,0.5-1.9-0.1-1.9-1.1v-10.3c0-0.5,0.2-0.9,0.6-1.1
					l5-2.9C136.9,109.8,137.9,110.4,137.9,111.4z"/>
				<g>
					<path class="st10" d="M128.5,123.5v-10.3c0-0.5,0.2-0.9,0.6-1.1l5-2.9c0.3-0.2,0.7-0.2,1-0.1c-0.4-0.3-1-0.5-1.5-0.2l-5,2.9
						c-0.4,0.2-0.6,0.6-0.6,1.1v10.3c0,0.6,0.4,1.2,1,1.3C128.7,124.3,128.5,123.9,128.5,123.5z"/>
				</g>
				<path class="st24" d="M131.1,113.6c0,0,0.6,3.5,0.5,6.4c-0.1,2.9-0.2,5.5-0.2,5.5l0.2-0.1c0,0,0.3-2.9,0.4-5.5
					c0.1-2.6-0.7-6.4-0.7-6.4L131.1,113.6z"/>
				<path class="st24" d="M132,113.1c0,0,0.6,3.5,0.5,6.4c-0.1,2.9-0.2,5.5-0.2,5.5l0.2-0.1c0,0,0.3-2.9,0.4-5.5s-0.7-6.4-0.7-6.4
					L132,113.1z"/>
				<path class="st24" d="M133,112.6c0,0,0.6,3.5,0.5,6.4c-0.1,2.9-0.2,5.5-0.2,5.5l0.2-0.1c0,0,0.3-2.9,0.4-5.5
					c0.1-2.6-0.7-6.4-0.7-6.4L133,112.6z"/>
				<path class="st24" d="M133.9,112c0,0,0.6,3.5,0.5,6.4c-0.1,2.9-0.2,5.5-0.2,5.5l0.2-0.1c0,0,0.3-2.9,0.4-5.5
					c0.1-2.6-0.7-6.4-0.7-6.4L133.9,112z"/>
				<path class="st24" d="M134.8,111.5c0,0,0.6,3.5,0.5,6.4c-0.1,2.9-0.2,5.5-0.2,5.5l0.2-0.1c0,0,0.3-2.9,0.4-5.5
					c0.1-2.6-0.7-6.4-0.7-6.4L134.8,111.5z"/>
				<path class="st24" d="M135.8,111c0,0,0.6,3.5,0.5,6.4c-0.1,2.9-0.2,5.5-0.2,5.5l0.2-0.1c0,0,0.3-2.9,0.4-5.5
					c0.1-2.6-0.7-6.4-0.7-6.4L135.8,111z"/>
				<path class="st24" d="M136.7,110.5c0,0,0.6,3.5,0.5,6.4c-0.1,2.9-0.2,5.5-0.2,5.5l0.2-0.1c0,0,0.3-2.9,0.4-5.5
					c0.1-2.6-0.7-6.4-0.7-6.4L136.7,110.5z"/>
			</g>
			<g>
				<path class="st25" d="M130.9,125.8v0.8c0,0,0.2,0.1,0.4,0.2c0.2,0.1,0.3-0.1,0.3-0.4c-0.1-0.4-0.3-0.8-0.3-0.8L130.9,125.8z"/>
				<polygon class="st26" points="130.9,125.8 130.5,125.6 130.5,126.4 130.9,126.7 				"/>
				<polygon class="st27" points="130.6,125.5 130.9,125.7 131.2,125.5 131.3,125.6 130.9,125.8 130.5,125.6 				"/>
			</g>
			<g>
				<path class="st25" d="M127.1,123.5v0.8c0,0,0.2,0.1,0.4,0.2c0.2,0.1,0.3-0.1,0.3-0.4C127.7,123.7,127.2,123.4,127.1,123.5
					L127.1,123.5z"/>
				<polygon class="st26" points="127.1,123.5 126.7,123.3 126.7,124.1 127.1,124.3 				"/>
				<polygon class="st27" points="126.8,123.2 127.2,123.4 127.1,123.5 126.7,123.3 				"/>
			</g>
			<path class="st26" d="M137.2,122c0,0,0,0.9,0.1,1.1c0.1,0.2,0.2,0.2,0.2,0.2c0,0-0.2-1.3-0.2-1.3L137.2,122z"/>
			<path class="st25" d="M137.4,122.1l0.8-0.5c0,0,0,0.5-0.1,0.9c-0.1,0.3-0.2,0.7-0.3,0.8c-0.1,0.1-0.3,0.2-0.3-0.4
				C137.4,122.5,137.4,122.1,137.4,122.1z"/>
			<polygon class="st27" points="137.2,122 137.4,122.1 138.2,121.6 137.9,121.5 137.9,121.6 			"/>
		</g>
		<path class="st16" d="M128.4,101.9c0,0,0.5,0.2,0.4,0.3c-0.1,0.1-0.2,0.3-0.2,0.3s0.3,0.2,0.7-0.2c0.5-0.5,1.4-0.6,1.5-1
			c0.1-0.4-0.1-0.9-0.5-0.9c-0.5,0-1.7,0.5-2.1,1.1c-0.2,0.3,0.1,0.6,0.1,0.6L128.4,101.9z"/>
		<path class="st16" d="M134,110.7l-1.8,1.1c-0.3,0.2-0.7,0.1-1,0l0,0c-0.3-0.2-0.3-0.4-0.1-0.6l1.8-1.1c0.3-0.2,0.7-0.1,1,0l0,0
			C134.2,110.3,134.3,110.6,134,110.7z"/>
	</g>
</g>
<g>
	<path class="st16" d="M90.2,92.4C90.2,92.4,90.2,92.4,90.2,92.4c-0.1,0-0.1,0-0.1,0c-0.4,0.5-1.3,0.9-1.3,1.6
		c0,0.3,0.7,0.8,0.8,1.1c0.1,0.4-0.3,0.6-0.4,0.7c-0.2,0.2-0.7,0.7,0.5,1.5c0.9,0.5-0.1,1.3,1,1.5c1.8,0.3,2.8-0.9,2.9-2.6
		C93.6,94.7,92,92.3,90.2,92.4z"/>
	<path class="st18" d="M89.1,111.4c0,0-1.7,7.7-2.1,8.7c-0.4,1-0.1,1.5,0.4,3.7c0.5,2.2,0.9,6,1.1,7.6c0.2,1.5,0.1,3.2-0.4,3.7
		c-0.6,0.5-2.4,2.7-1.9,3.1c0.5,0.4,1.1,0.1,1.9-0.6c0.8-0.7,1.6-0.8,2.1-1.1c0.6-0.3,0.9-0.8,0.4-2.8c-0.4-1.7,0.7-6.5,0.7-9
		c0-1.6-0.4-3.1-0.4-3.2C90.8,120.1,93.1,117.3,89.1,111.4z"/>
	<path class="st15" d="M92.6,119.8c0,0-0.2,6,0.3,7.4c0.3,1.1,1.4,7.1,1.5,8.1c0.1,1.4-0.1,2.7,0,3.7c0.1,0.8-1.5,3.3,0.3,2.4
		c1.2-0.6,2.3-2.5,1.9-3.7c-0.1-0.4-0.4-1-0.4-2.4c0.1-2.4,0.6-3.6,0.4-5.8c0-0.4-0.4-3.5-0.2-5.3c0.2-2.5,0.6-4.2,0.3-4.8
		C96.2,118.5,92.6,119.8,92.6,119.8z"/>
	<path class="st15" d="M90.2,97.9c0,0-1.8-0.3-2.6,1c-0.3,0.5-2.1,3.8-2.9,5.1c-0.4,0.7-0.4,1.2-0.3,1.8c0.1,0.4,0.3,1.2,0.8,1.8
		c0.6,0.8,1.8,1.6,2,2.5c0.1,0.6-0.4,1.9,0.1,2.6c0.4,0.5-0.1,0.5-0.5,0.8c-0.4,0.3-0.3,0.8,0.5,0.4c0.8-0.4,2.6-1,2.6-1
		s-0.6-1.9-0.9-3.1s-2-3.1-2.6-4.2c0.7-1.6,4-5,4-5L90.2,97.9z"/>
	<path class="st16" d="M92.2,120.8c0,0,0,0.1,0,0.1c1.4,0.8,3.5,1.3,5.2,0.9c0.3-1.5,0.8-4.1,0.5-5.7c-0.6-2.5-1.4-4-1.4-4
		c-2.9,2-8.1,0.2-8.1,0.2l-1.6,6.8c1.1,1.7,3.2,1.9,4.6,1.6c0.3-1.1,0.5-2.2,0.5-2.2L92.2,120.8z"/>
	<g>
		<path class="st18" d="M92.4,100.8c1.2-0.4,2-2.3,2.3-3.1c0,0,0-0.1,0-0.1c-0.4-1-0.1-2.5-0.1-2.5L92,95.8c0,0.6,0,1.2-0.3,1.5
			c-0.1,0.1-0.2,0.2-0.4,0.3c-0.2,0.5-0.7,1.5-1,2.4C90,100.8,91.3,101.2,92.4,100.8z"/>
		<path class="st22" d="M88.5,100.8c-0.3,0.7-0.7,1.6,0.1,3c0.3,1.5,0.2,2,0.1,3.8c0,1.7-0.9,4.9-0.9,4.9s0.6,1.2,3.1,1.7
			c3.4,0.7,6.1-1.4,6.1-1.4s-2-4.1-1.6-5.6c0.8-3.1,1-3.8,1.2-4.3c0.7-2,0.3-3.7,0.3-3.7s-1.9-0.7-2.3-1.5c-0.3,0.8-1.1,2.7-2.3,3.1
			c-1.1,0.4-2.4,0-2.2-0.8c0.2-0.9,0.7-2,1-2.4c-0.4,0.2-1.1,0.3-1.3,0.3C89.7,98.3,89.2,99.4,88.5,100.8z"/>
	</g>
	<g>
		<path class="st15" d="M90.6,90.8c-1.2,1.3-0.7,5.7,1.1,6c1.2,0.2,2.8-0.9,3.4-2.9C95.6,92.2,93,88.4,90.6,90.8z"/>
		<path class="st16" d="M97.5,95c-0.2-0.3,0-0.8,0-1.1c0.3-0.9,0.2-1.3-0.6-1.8c-0.4-0.3-0.6-2-0.8-2.2c-0.4-0.8-0.8-1.6-2-0.9
			c-0.3-0.7-1.3-1.1-3-0.3c-0.5,0.2-0.8,0.9-1,1.3c-0.3,0.9-0.6,1.2-1.5,1.4c0.1,0.3,0.7,1,1.4,0.7c0.9-0.4,2.5,0.5,3.5,0.3
			c0.3,0.3,0.3,0.7,0.5,1.1c1-0.6,1.1,0.5,0.6,1.1c-0.5,3.1,0.2,4,2,4.5c0.6,0.2,1,0.1,1.1-0.6c0-0.7-1-1.1-0.4-1.8
			c0.2-0.3,0.5-0.1,0.7-0.6C98,95.5,97.5,95.1,97.5,95z"/>
	</g>
	<path class="st10" d="M91.9,108.2l1.5-0.1l-0.8-6.1l-1.4-0.1l-1.5,4.1l0.7,0.6l0.4-1.2l0.9,0.7L91.9,108.2z M91,105l0.5-1.4
		l0.2,1.9L91,105z"/>
	<g>
		<g>
			<path class="st28" d="M93.9,137.6c-0.3,0.8-0.7,2-0.9,2.6c-0.3,0.9-0.2,1.2-0.2,1.2s1,1.1,1.8,1c0.7-0.1,1.4-0.6,1.7-1
				c0.1-0.2,0.2-0.4,0.3-0.7c-0.1-1-0.4-2.4-0.8-2.9C95.3,137.5,94.5,137.5,93.9,137.6z"/>
			<path class="st29" d="M97,136.7c0,0-1.6-1.2-2.7-0.2c0,0-0.2,0.5-0.4,1.1c0.6-0.1,1.4-0.2,1.8,0.3c0.4,0.5,0.7,1.9,0.8,2.9
				c0.3-0.7,0.5-1.6,0.6-1.9C97.3,138,97,136.7,97,136.7z"/>
		</g>
		<path class="st10" d="M96.2,141.3c0.2-0.9-0.5-2.5-0.5-2.5s-0.1,1.4,0,2.8C95.8,141.5,96,141.4,96.2,141.3z"/>
		<path class="st10" d="M96.9,140.1c0.5-1.5-0.7-2.4-0.7-2.4s0.5,1.4,0.5,2.8C96.7,140.4,96.8,140.2,96.9,140.1z"/>
		<path class="st10" d="M94.8,136.2c0,0-0.4,1.5-0.6,2.2c-0.1,0.6,0.5,1.3,0.9,0.1c0.4-1.2,0.8-2.3,0.8-2.3S95.4,135.8,94.8,136.2z"
			/>
		<path class="st16" d="M92.7,141.5c0,0,0.6-0.4,1.2-0.2c0.6,0.2,0.8,1,1.6,0.3c0.7-0.7,1.2-1.4,1.3-1.8c0.1-0.3,0.4-1.7,0.4-1.7
			s0.1,0.6,0,1.1c-0.1,0.6-0.7,1.9-1.1,2.3c-0.5,0.5-1.2,1.2-2.8,0.6C92.3,141.8,92.7,141.5,92.7,141.5z"/>
	</g>
	<g>
		<g>
			<path class="st28" d="M87.9,134.8c-0.1,0-0.2,0-0.3,0c-0.4,0.4-0.9,0.9-1.5,1.4c-0.6,0.6-0.9,1.1-1.6,1.6
				c-0.5,0.4,0.2,0.9,1.1,1.2c0.4,0.1,1.1,0.1,1.6-0.1c0.6-0.2,0.8-0.5,1.6-1.3c0-0.3,0-0.7,0-1C88.8,135.3,87.9,134.8,87.9,134.8z"
				/>
			<path class="st29" d="M90.5,136.5c0.5-0.3,0.9-1,0.9-1s-0.1-1.7-0.6-1.8c-0.4,0-0.1,1.2-0.7,1.1c-0.7-0.1-1.6-0.7-2.1-0.6
				c0,0-0.1,0.2-0.4,0.4c0.1,0,0.2,0,0.3,0c0,0,0.9,0.5,0.9,1.8c0,0.3,0,0.6,0,1c0,0,0,0,0,0C89.3,137.1,90,136.8,90.5,136.5z"/>
		</g>
		<path class="st10" d="M88.2,135.9c0,0,0.1,0.6,0,1.5c-0.1,0.6-0.4,1.1-0.4,1.1l0.7-0.7C88.5,137.8,88.8,136.4,88.2,135.9z"/>
		<path class="st10" d="M88.8,135.2c0,0,0.5,0.8,0.4,1.9s0.5-0.3,0.5-0.3S89.6,135.5,88.8,135.2z"/>
		<path class="st10" d="M88.2,134.4c-0.5,0.4-0.9,1-1.3,1.5c-0.4,0.5,0.1,0.8,0.5,0.3c0.5-0.5,1.4-1.6,1.4-1.6
			S88.3,134.3,88.2,134.4z"/>
		<path class="st16" d="M84.4,138c0,0,0.5-0.1,0.9,0.3c0.4,0.4,0.8,0.5,1.5,0.5c0.8-0.1,1.2-0.8,2-1.4c0.8-0.6,1.6-0.8,1.9-1
			c0.4-0.3,0.6-1.3,0.6-1.3s0.2,0.5,0.2,0.8c0,0.4-0.3,0.7-0.5,0.8c-0.2,0.2-0.4,0.4-1,0.6c-0.3,0.1-0.9,0.4-1.2,0.6
			c-0.3,0.2-0.8,1.2-1.7,1.3c-0.9,0.2-1.9,0.1-2.4-0.4C84.2,138.2,84.4,138,84.4,138z"/>
	</g>
	<g>
		<path class="st16" d="M97.6,124.1c0.3-0.2,1.2-2.1,1.6-4c0.4-1.8,0.7-2.6,1.5-2.9c0.8-0.3,0.9,0.9,1,1.5c0,0.6-0.1,3.3-0.2,3.3
			c-0.1,0.1-0.5,0.1-0.5,0.1s0.1-3.4,0.1-3.8c0-0.4-0.4-0.8-0.8-0.1c-0.4,0.7-0.9,2.7-1.1,3.5c-0.2,0.9-0.8,1.9-0.8,1.9L97.6,124.1z
			"/>
		<g>
			<polygon class="st29" points="99.8,131.9 107.5,127.5 103.3,120.7 95.5,125.2 			"/>
			<path class="st28" d="M99.8,131.9l-6-3.4c0,0,0.5-4.3,3.3-3.4C99.8,126,99.8,131.9,99.8,131.9z"/>
			<path class="st29" d="M107.5,127.5l-6-3.4c0,0,0.5-4.3,3.3-3.4C107.5,121.6,107.5,127.5,107.5,127.5z"/>
		</g>
		<polygon class="st16" points="97.1,125.1 97.7,125.4 105.3,121 104.7,120.7 		"/>
		<path class="st30" d="M101.3,126.2c0,0-0.8-3.9-0.8-5.5c0-1.5,0.3-2.3,0.7-2.6c0.4-0.3,1-0.8,1.4,0.4c0.4,1.3,1,2.6,1.5,3.5
			c0.4,0.6,1.3,1.8,1.3,1.8l-0.6,0.4c0,0-1.5-2-2-3.7c-0.2-0.8-0.5-2.3-1.1-1.9c-0.6,0.4-0.6,1.9-0.5,2.9c0.1,1.5,0.9,4.2,0.9,4.2
			L101.3,126.2z"/>
		<path class="st10" d="M101.3,126.7c0,0-0.3-0.8,0.3-1.2c0.6-0.3,0.7,0.6,0.7,0.6L101.3,126.7z"/>
		<path class="st10" d="M104.6,124.7c0,0-0.3-0.8,0.3-1.2c0.6-0.3,0.7,0.6,0.7,0.6L104.6,124.7z"/>
		<polygon class="st30" points="93.9,128.1 93.8,128.6 99.8,132.1 99.8,131.6 		"/>
		<polygon class="st16" points="99.8,131.6 99.8,132.1 107.5,127.7 107.5,127.2 		"/>
	</g>
	<path class="st15" d="M101.2,115.5c0.1-0.9-0.7-6.2-1.3-8.2c-0.3-1.1-0.9-3.2-1.1-4.7c-0.3-3-1.1-3.4-2.2-3.6
		c-0.4-0.1-1.1,1.6-1.2,3.2c-0.1,0.8,1.1,2.9,1.4,3.8c0,0.1,1,1.4,0.9,4.1c0,2,2,4.9,1.9,6c0,0.8,0.1,1.3,0.2,1.9
		c0.2-0.3,0.3-0.4,0.5-0.6c0.2,0.3,0.2,1.5,0.6,1.8c0.8,0.7,1.7,0.1,1.7-0.9C102.8,117,101.1,116.4,101.2,115.5z"/>
</g>
</svg>
