<?xml version="1.0" encoding="utf-8"?>
<!-- Generator: Adobe Illustrator 23.0.3, SVG Export Plug-In . SVG Version: 6.00 Build 0)  -->
<svg version="1.1" id="Layer_1" xmlns="http://www.w3.org/2000/svg" xmlns:xlink="http://www.w3.org/1999/xlink" x="0px" y="0px"
	 viewBox="0 0 162.9 162.9" style="enable-background:new 0 0 162.9 162.9;" xml:space="preserve">
<style type="text/css">
	.st0{fill:#E22261;}
	.st1{fill:#EF5289;}
	.st2{fill:#EE396E;}
	.st3{fill:#F176A8;}
	.st4{fill:#D3D3D3;}
	.st5{fill:#4F2626;}
	.st6{fill:#C11E54;}
	.st7{fill:#673737;}
	.st8{fill:#FFFFFF;}
	.st9{fill:#834F4F;}
	.st10{fill:#A9A8A8;}
	.st11{fill:#404040;}
	.st12{fill:#C0BFBF;}
</style>
<g>
	<g>
		<path class="st0" d="M18.3,88.5c-1.8,1-5.3,3.1-6.5,3.8c-1.9,1.1-1.3,4.9-1.3,7.9c0,2.3,3.8,3.5,3.8,0c0-2.9,0-6.4,0-6.4l4.5-2.6
			c0.6-0.4,1-1,1-1.8l0,0L18.3,88.5z"/>
		<path class="st1" d="M11.8,92.3c0,0-0.2,0.3,0.5,0.7s1.4,0,1.4,0l6.1-3.5l-1.5-0.9L11.8,92.3z"/>
	</g>
	<g>
		<path class="st2" d="M17.8,75.3l-1.9,50.3c0,1.4,0.8,2,1.5,1.6l77.3-44.5L95.4,23L24.1,63.8C20.4,65.9,18.1,71.1,17.8,75.3z"/>
		<polygon class="st2" points="49.2,145.8 16.6,127.2 20.7,95.7 61.8,103.2 		"/>
		<path class="st3" d="M22.1,65.3L58,86.2l3.3-3.3L24.6,63.5c0,0-0.9,0.5-1.1,0.7C23,64.5,22.1,65.3,22.1,65.3z"/>
		<path class="st0" d="M50.3,93.9l-1.9,50.7c0,0.8,0.8,1.6,1.6,1.2l98.8-57.1V29.4L56.6,82.3C52.9,84.4,50.6,89.7,50.3,93.9z"/>
		<polygon class="st4" points="64.6,122.8 148.8,73.9 148.8,46.5 63.1,95 		"/>
		<polygon class="st1" points="116.3,10.6 148.8,29.4 56.6,82.3 24.3,63.6 		"/>
		<path class="st5" d="M48.7,135.9c0,0,5.1-9.7,19.5-17.6c16.6-9.2,54.2-31.2,54.2-31.2l5.1-17.5l-56.6,32.8l-0.1-13.2
			c0,0-19.4,14.8-20.9,14.8C49.5,109.5,48.7,135.9,48.7,135.9z"/>
	</g>
	<path class="st6" d="M65.6,136.8c0.3-4.2,2.9-8.4,6.1-9.7c2.6-1,4.7,0.3,5.4,3.1C75.7,131,66.3,136.2,65.6,136.8z"/>
	<g>
		<path class="st5" d="M75.2,136.8c0.5-1.2,0.9-2.5,0.9-3.8c0.1-3.5-2-5.5-4.6-4.4s-4.9,4.7-5,8.2H75.2z"/>
		<path class="st7" d="M73.5,131.6c0.1-2.4-1.7,1.7-5.1,3.5c-1.5,0.8-3,1.8-4.2,2.5c0.3,1.2,1,1.9,1.9,2.3c0.1,0.1,3,1.3,3,1.3
			l1.6-1.1l-1.8-0.5C71.4,138.5,73.4,134.9,73.5,131.6z"/>
		<path class="st5" d="M76.5,132.9c-0.1,3.5-2.3,7.2-5,8.3c-2.6,1.1-4.7-0.9-4.6-4.4s2.3-7.2,5-8.3
			C74.6,127.5,76.6,129.4,76.5,132.9z"/>
		<path class="st7" d="M74.8,133.6c-0.1,2.2-1.5,4.6-3.2,5.3s-3-0.6-3-2.8c0.1-2.2,1.5-4.6,3.2-5.3
			C73.6,130.1,74.9,131.4,74.8,133.6z"/>
		<path class="st8" d="M74,134c0,1.7-1.1,3.4-2.4,3.9s-2.2-0.4-2.2-2.1c0-1.7,1.1-3.4,2.4-3.9C73.1,131.3,74.1,132.3,74,134z"/>
	</g>
	<path class="st6" d="M118.3,106.3c0.3-4.2,2.9-8.4,6.1-9.7c2.6-1,4.7,0.3,5.4,3.1C128.4,100.5,119,105.7,118.3,106.3z"/>
	<g>
		<path class="st5" d="M127.9,106.3c0.5-1.2,0.9-2.5,0.9-3.8c0.1-3.5-2-5.5-4.6-4.4s-4.9,4.7-5,8.2
			C119.2,106.3,127.9,106.3,127.9,106.3z"/>
		<path class="st7" d="M126.2,101.2c0.1-2.4-1.7,1.7-5.1,3.5c-1.5,0.8-3,1.8-4.2,2.5c0.3,1.2,1,1.9,1.9,2.3c0.1,0.1,3,1.3,3,1.3
			l1.6-1.1l-1.8-0.5C124.1,108,126.1,104.5,126.2,101.2z"/>
		<path class="st5" d="M129.3,102.5c-0.1,3.5-2.3,7.2-5,8.3c-2.6,1.1-4.7-0.9-4.6-4.4s2.3-7.2,5-8.3C127.3,97,129.3,99,129.3,102.5z
			"/>
		<path class="st7" d="M127.5,103.2c-0.1,2.2-1.5,4.6-3.2,5.3c-1.7,0.7-3-0.6-3-2.8c0.1-2.2,1.5-4.6,3.2-5.3
			C126.3,99.7,127.6,101,127.5,103.2z"/>
		<path class="st8" d="M126.7,103.5c0,1.7-1.1,3.4-2.4,3.9s-2.2-0.4-2.2-2.1s1.1-3.4,2.4-3.9S126.8,101.9,126.7,103.5z"/>
	</g>
	<path class="st6" d="M130.7,99.2c0.3-4.2,2.9-8.4,6.1-9.7c2.6-1,4.7,0.3,5.4,3.1C140.8,93.4,131.4,98.6,130.7,99.2z"/>
	<g>
		<path class="st5" d="M140.3,99.2c0.5-1.2,0.9-2.5,0.9-3.8c0.1-3.5-2-5.5-4.6-4.4s-4.9,4.7-5,8.2C131.6,99.2,140.3,99.2,140.3,99.2
			z"/>
		<path class="st7" d="M138.6,94.1c0.1-2.4-1.7,1.7-5.1,3.5c-1.5,0.8-3,1.8-4.2,2.5c0.3,1.2,1,1.9,1.9,2.3c0.1,0.1,3,1.3,3,1.3
			l1.6-1.1l-1.8-0.5C136.5,100.9,138.5,97.4,138.6,94.1z"/>
		<path class="st5" d="M141.6,95.4c-0.1,3.5-2.3,7.2-5,8.3c-2.6,1.1-4.7-0.9-4.6-4.4c0.1-3.5,2.3-7.2,5-8.3
			C139.7,89.9,141.7,91.9,141.6,95.4z"/>
		<path class="st7" d="M139.9,96.1c-0.1,2.2-1.5,4.6-3.2,5.3c-1.7,0.7-3-0.6-3-2.8c0.1-2.2,1.5-4.6,3.2-5.3
			C138.7,92.6,140,93.8,139.9,96.1z"/>
		<path class="st8" d="M139.1,96.4c0,1.7-1.1,3.4-2.4,3.9c-1.3,0.5-2.2-0.4-2.2-2.1s1.1-3.4,2.4-3.9S139.2,94.7,139.1,96.4z"/>
	</g>
	<g>
		<polygon class="st5" points="53.7,143.6 53.2,143.9 53.2,119.8 53.7,119.8 		"/>
	</g>
	<g>
		<polygon class="st5" points="64.7,137.4 64.2,137.6 64.2,113.5 64.7,113.5 		"/>
	</g>
	<g>
		<path class="st4" d="M83.6,111V92.3h-0.5v19.1C83.3,111.2,83.5,111.1,83.6,111z"/>
	</g>
	<g>
		<path class="st4" d="M71.2,118.7C71.3,118.6,71.3,118.6,71.2,118.7l0.1-20.1h-0.5v20.3C71,118.8,71.1,118.7,71.2,118.7z"/>
	</g>
	<g>
		<path class="st4" d="M96.6,103V84.2h-0.5v19.2C96.3,103.3,96.4,103.2,96.6,103z"/>
	</g>
	<g>
		<path class="st4" d="M108.5,96.7c0.1-0.1,0.2-0.1,0.3-0.2V77c-0.2,0.1-0.3,0.2-0.5,0.2v19.6C108.4,96.8,108.5,96.8,108.5,96.7z"/>
	</g>
	<g>
		<path class="st7" d="M20.5,87.4l-3.1-0.9c0,0.2,0,0.3,0,0.3l31,18.3c0,0,0.1-8.4,0.4-12.2c0.1-1.1,0.2-2.3,0.4-3.5
			C43.4,86.1,28.9,78,25.4,76.1C20.9,73.8,20.5,87.4,20.5,87.4z"/>
		<path class="st9" d="M47.2,82.5c-3.2-1.9-21-12-23.8-13.7s-4.5,1.5-4.5,1.5c-1.6,3.3-1.6,14.2-1.6,16l3.1,0.9
			c0,0,0.5-13.6,4.9-11.3c3.5,1.8,18,10,23.8,13.3C49.4,86.5,49.4,83.9,47.2,82.5z"/>
	</g>
	<g>
		<polygon class="st10" points="39.5,133.8 23.7,124.6 23.7,125.2 39.4,134.4 		"/>
		<polygon class="st10" points="39.4,135 23.6,125.9 23.6,126.5 39.3,135.6 		"/>
		<polygon class="st10" points="23.4,129.1 39.1,138.2 39.2,137.6 23.4,128.5 		"/>
		<polygon class="st10" points="23.5,127.2 23.5,127.8 39.2,137 39.3,136.3 		"/>
		<polygon class="st11" points="23.4,128.5 39.2,137.6 39.2,137 23.5,127.8 		"/>
		<polygon class="st11" points="39.3,135.6 23.6,126.5 23.5,127.2 39.3,136.3 		"/>
		<polygon class="st11" points="39.4,134.4 23.7,125.2 23.6,125.9 39.4,135 		"/>
	</g>
	<g>
		<path class="st7" d="M21.5,110.2c-0.8,3.1-1.4,6.7-1.8,8.9l29,16.8l0.6-18.5c-5.4-3-17.7-9.8-21.6-11.8
			C25.7,104.6,22.6,105.9,21.5,110.2z"/>
		<path class="st9" d="M17.2,91.9L16.3,117l2.8,1.7l0.7,0.4c0.4-2.1,1-5.7,1.8-8.9c1.1-4.3,4.2-5.7,6.3-4.6
			c3.9,2,16.2,8.8,21.6,11.8l0.2-6.7L17.2,91.9z"/>
	</g>
	<path class="st5" d="M77.9,117.1v11l36.4-21V96L77.9,117.1z M102.7,103v10.5l-12.4,7.2v-10.5L102.7,103z M78.2,117.2l12-6.9v10.5
		l-12,6.9V117.2z M114.1,106.9l-11.1,6.4v-10.5l11.1-6.4V106.9z"/>
	<polygon class="st8" points="17.2,91.9 49.6,110.7 49.9,104 17.2,85 	"/>
	<polygon class="st5" points="18.5,91.3 47.7,108.3 47.9,104.5 18.6,87.4 	"/>
	<path class="st4" d="M49.9,104l-0.3,6.7l9-5.6c2-1.3,3.7-3.7,4.5-5.3c0.5-1,1.6-4.2,1.6-4.2L49.9,104z"/>
	<path class="st5" d="M51.5,103.1l97.3-56.2V31.6L59.7,82.3c-3.7,2-6.6,5.4-7.5,9.5C51.5,94.8,51.5,103.1,51.5,103.1z"/>
	<g>
		<path class="st4" d="M96.3,82V63.3h-0.5v19.1C95.9,82.3,96.1,82.1,96.3,82z"/>
	</g>
	<g>
		<path class="st4" d="M83.9,89.7C83.9,89.7,83.9,89.6,83.9,89.7L84,69.6h-0.5v20.3C83.6,89.8,83.7,89.7,83.9,89.7z"/>
	</g>
	<g>
		<path class="st4" d="M108.8,74V55.3h-0.5v19.2C108.5,74.3,108.7,74.2,108.8,74z"/>
	</g>
	<g>
		<path class="st4" d="M119.9,67.7c0.1-0.1,0.2-0.1,0.3-0.2V48c-0.2,0.1-0.3,0.2-0.5,0.2v19.6C119.7,67.8,119.8,67.8,119.9,67.7z"/>
	</g>
	<g>
		<path class="st4" d="M132.6,61.6c0.1-0.1,0.2-0.1,0.3-0.2V41.8c-0.2,0.1-0.3,0.2-0.5,0.2v19.6C132.4,61.7,132.5,61.6,132.6,61.6z"
			/>
	</g>
	<g>
		<path class="st4" d="M141.2,57.1c0.1-0.1,0.2-0.1,0.3-0.2V37.4c-0.2,0.1-0.3,0.2-0.5,0.2v19.6C141,57.2,141.1,57.2,141.2,57.1z"/>
	</g>
	<path class="st8" d="M67,105.3c0,0,2.3-7.8,3.4-12.5c0.5-2.3,2-6.7,3-10.5c1.1-3.8,3.2-9.5,7.9-12.5c9.4-5.9,67.5-38.7,67.5-38.7
		V34c0,0-63.5,36.3-67.2,38.5c-5.2,3.2-8.1,18.5-8.7,20.6C71.8,96.9,70.2,102.3,67,105.3z"/>
	<path class="st5" d="M121.4,59.6c0,0,0.3,7.1,0,10.3c-0.3,3.2-2.4,4.6-5.7,6.5c-3.3,1.9-0.9,14.8-0.9,14.8s6-3.2,8.9-5
		c4.3-2.7,8.1-9.6,8-19.3c-0.1-9.7,0-12.8,0-12.8L121.4,59.6z"/>
	<polygon class="st7" points="53.9,125 53.9,110.7 62.8,105.6 62.8,119.8 	"/>
	<g>
		<path class="st4" d="M120.2,89.7V69.6c-0.2,0.1-0.3,0.2-0.5,0.2v20.3C119.8,89.9,120,89.8,120.2,89.7z"/>
	</g>
	<g>
		<path class="st5" d="M133.5,60.4v7.1l13.8-7.9h0.1v-7.2L133.5,60.4z M147.2,57.7l-13.5,7.8V64l13.5-7.8V57.7z M147.2,55.9
			l-13.5,7.8v-1.5l13.5-7.8V55.9z M147.2,52.8v1.4L133.7,62v-1.4L147.2,52.8z M133.7,67.1v-1.4l13.5-7.8v1.5L133.7,67.1z"/>
		<path class="st5" d="M133.5,78.2l13.8-7.9h0.1v-7.2l-13.9,8.1L133.5,78.2L133.5,78.2z M133.7,72.9l13.5-7.8v1.5l-13.5,7.8V72.9z
			 M133.7,74.7l13.5-7.8v1.5l-13.5,7.8V74.7z M133.7,77.8v-1.4l13.5-7.8v1.5L133.7,77.8z M147.2,63.5v1.4l-13.5,7.8v-1.4L147.2,63.5
			z"/>
	</g>
	<g>
		<path class="st0" d="M52.4,108.2c-1.8,1-5.3,3.1-6.5,3.8c-1.9,1.1-1.3,4.9-1.3,7.9c0,2.3,3.8,3.5,3.8,0c0-2.9,0-6.4,0-6.4l4.5-2.6
			c0.6-0.4,1-1,1-1.8l0,0L52.4,108.2z"/>
		<path class="st1" d="M45.9,111.9c0,0-0.2,0.3,0.5,0.7c0.7,0.3,1.4,0,1.4,0l6.1-3.5l-1.5-0.9L45.9,111.9z"/>
	</g>
	<path class="st8" d="M16.1,120.2l-0.2,4.5l5.8,3.3l0.1-1.5c0.1-1.8-0.8-3.5-2.3-4.4L16.1,120.2z"/>
	<path class="st8" d="M41.7,138.2l-0.1,1.5l6.8,4l0.2-4.5l-4.1-2.4C43.3,136,41.8,136.8,41.7,138.2z"/>
	<g>
		<polygon class="st4" points="36.3,62.8 59,76 63.1,70.1 40.4,57 		"/>
		<polygon class="st12" points="59,76 90.5,57.8 90.5,54.4 63.1,70.1 		"/>
		<polygon class="st8" points="40.4,57 63.1,70.1 90.5,54.4 67.8,41.4 		"/>
		<g>
			<polygon class="st9" points="43.6,57.1 62.9,68.3 63.8,67.8 44.5,56.6 			"/>
			<polygon class="st9" points="46.9,55.3 66.2,66.5 67.1,65.9 47.7,54.7 			"/>
			<polygon class="st9" points="50,53.4 69.3,64.7 70.2,64.2 50.9,52.9 			"/>
			<polygon class="st9" points="53.2,51.6 72.5,62.8 73.4,62.3 54,51.1 			"/>
			<polygon class="st9" points="56.4,49.8 75.8,61 76.7,60.5 57.3,49.3 			"/>
		</g>
	</g>
	<g>
		<polygon class="st4" points="78.8,38.2 101.6,51.4 105.7,45.5 83,32.3 		"/>
		<polygon class="st12" points="101.6,51.4 133.1,33.2 133.1,29.8 105.7,45.5 		"/>
		<polygon class="st8" points="83,32.3 105.7,45.5 133.1,29.8 110.4,16.8 		"/>
		<g>
			<polygon class="st9" points="86.2,32.5 105.5,43.7 106.4,43.2 87.1,32 			"/>
			<polygon class="st9" points="89.5,30.7 108.8,41.9 109.7,41.3 90.3,30.1 			"/>
			<polygon class="st9" points="92.5,28.8 111.9,40.1 112.8,39.5 93.5,28.3 			"/>
			<polygon class="st9" points="95.7,27 115.1,38.2 116,37.7 96.6,26.5 			"/>
			<polygon class="st9" points="98.9,25.1 118.3,36.4 119.2,35.9 99.9,24.7 			"/>
		</g>
	</g>
</g>
</svg>
