<?xml version="1.0" encoding="utf-8"?>
<!-- Generator: Adobe Illustrator 23.0.3, SVG Export Plug-In . SVG Version: 6.00 Build 0)  -->
<svg version="1.1" id="Layer_1" xmlns="http://www.w3.org/2000/svg" xmlns:xlink="http://www.w3.org/1999/xlink" x="0px" y="0px"
	 viewBox="0 0 162.9 162.9" style="enable-background:new 0 0 162.9 162.9;" xml:space="preserve">
<style type="text/css">
	.st0{fill:#048A85;}
	.st1{fill:#8BD3D8;}
	.st2{fill:#35BEBC;}
	.st3{fill:#10A5A6;}
	.st4{fill:#673737;}
	.st5{fill:#FFFFFF;}
	.st6{fill:#4F2626;}
	.st7{fill:#834F4F;}
	.st8{fill:#404040;}
</style>
<g>
	<g>
		<path class="st0" d="M150.3,94.6c2,1.2,6,3.5,7.3,4.3c2.1,1.3,1.5,5.5,1.5,8.9c0,2.6-4.3,4-4.3,0c0-3.2,0-7.2,0-7.2l-5.1-2.9
			c-0.7-0.4-1.1-1.2-1.1-2l0,0L150.3,94.6z"/>
		<path class="st1" d="M157.6,98.9c0,0,0.2,0.4-0.6,0.8s-1.5,0-1.5,0l-6.9-4l1.7-1L157.6,98.9z"/>
	</g>
	<g>
		<path class="st0" d="M150.8,96l2.1,30.9c0,0.7-0.7,1.1-1.2,0.8L64.5,77.3L63.7,39l80,45.8C147.9,87.1,150.5,91.3,150.8,96z"/>
		<polygon class="st0" points="116.1,148.5 152.6,127.7 147.5,91.9 101.5,100.4 		"/>
		<path class="st2" d="M146,86.3L105.9,110l-3.7-3.7l41.3-21.8c0,0,1,0.6,1.3,0.8C145.3,85.7,146,86.3,146,86.3z"/>
		<path class="st3" d="M114.3,116.9l2.1,30.9c0,0.7-0.7,1.1-1.2,0.8L3.8,84.1v-38l103.5,59.4C111.4,107.9,114,112.2,114.3,116.9z"/>
		<polygon class="st1" points="40.3,25.1 3.8,46.1 107.3,105.6 143.5,84.6 		"/>
		<path class="st4" d="M115.7,137.2c0,0-5.4-11.1-21.6-20C75.6,107,3.8,64.8,3.8,64.8V48.5l104.4,60.8c0,0,5.9,3.9,6.4,10.1
			C114.9,125.5,115.7,137.2,115.7,137.2z"/>
		<path class="st5" d="M126.5,134.7l0.4,4.9c-1.3,0.7-3.5,2-4.3,2.5c-3,1.7-5.5-2-5.5-2L126.5,134.7z"/>
		<path class="st5" d="M144.1,124.4l7.1-4.1c0,0,1.6,4.3-3.2,7.1c-1.5,0.9-1.8,1-3.5,2.1L144.1,124.4z"/>
	</g>
	<path class="st0" d="M97.1,138c-0.3-4.7-3.3-9.5-6.8-10.9c-2.9-1.2-5.3,0.3-6.1,3.4C85.8,131.5,96.3,137.4,97.1,138z"/>
	<g>
		<path class="st6" d="M86.4,138c-0.6-1.4-1-2.8-1-4.3c-0.1-3.9,2.2-6.2,5.2-5s5.4,5.3,5.6,9.3H86.4z"/>
		<path class="st6" d="M88.3,132.2c-0.1-2.7,1.9,1.9,5.7,4c1.7,0.9,3.4,2,4.7,2.8c-0.4,1.4-1.1,2.2-2.1,2.6
			c-0.2,0.1-3.4,1.5-3.4,1.5l-1.8-1.2l2-0.5C90.7,139.9,88.4,136,88.3,132.2z"/>
		<path class="st4" d="M84.9,133.7c0.1,3.9,2.6,8.1,5.6,9.3s5.3-1,5.2-5c-0.1-3.9-2.6-8.1-5.6-9.3C87.1,127.6,84.8,129.8,84.9,133.7
			z"/>
		<path class="st7" d="M86.8,134.5c0.1,2.5,1.7,5.2,3.6,5.9c1.9,0.8,3.4-0.7,3.3-3.2s-1.7-5.2-3.6-5.9
			C88.2,130.6,86.7,132,86.8,134.5z"/>
		<path class="st5" d="M87.7,134.9c0,1.9,1.2,3.9,2.6,4.4c1.4,0.6,2.5-0.5,2.5-2.4s-1.2-3.9-2.6-4.4C88.7,131.9,87.6,133,87.7,134.9
			z"/>
	</g>
	<path class="st0" d="M38,103.9c-0.3-4.7-3.3-9.5-6.8-10.9c-2.9-1.2-5.3,0.3-6.1,3.4C26.7,97.3,37.2,103.2,38,103.9z"/>
	<g>
		<path class="st6" d="M27.2,103.9c-0.6-1.4-1-2.8-1-4.3c-0.1-3.9,2.2-6.2,5.2-5s5.4,5.3,5.6,9.3H27.2z"/>
		<path class="st6" d="M29.1,98.1c-0.1-2.7,1.9,1.9,5.7,4c1.7,0.9,3.4,2,4.7,2.8c-0.4,1.4-1.1,2.2-2.1,2.6c-0.2,0.1-3.4,1.5-3.4,1.5
			l-1.8-1.2l2-0.5C31.5,105.8,29.2,101.8,29.1,98.1z"/>
		<path class="st4" d="M25.7,99.6c0.1,3.9,2.6,8.1,5.6,9.3c3,1.2,5.3-1,5.2-5c-0.1-3.9-2.6-8.1-5.6-9.3
			C27.9,93.4,25.6,95.6,25.7,99.6z"/>
		<path class="st7" d="M27.6,100.4c0.1,2.5,1.7,5.2,3.6,5.9c1.9,0.8,3.4-0.7,3.3-3.2c-0.1-2.5-1.7-5.2-3.6-5.9
			C29.1,96.4,27.6,97.8,27.6,100.4z"/>
		<path class="st5" d="M28.5,100.7c0,1.9,1.2,3.9,2.6,4.4c1.4,0.6,2.5-0.5,2.5-2.4s-1.2-3.9-2.6-4.4C29.6,97.8,28.5,98.8,28.5,100.7
			z"/>
	</g>
	<path class="st0" d="M24,95.9c-0.3-4.7-3.3-9.5-6.8-10.9c-2.9-1.2-5.3,0.3-6.1,3.4C12.8,89.3,23.2,95.2,24,95.9z"/>
	<g>
		<path class="st6" d="M13.3,95.9c-0.6-1.4-1-2.8-1-4.3c-0.1-3.9,2.2-6.2,5.2-5s5.4,5.3,5.6,9.3H13.3z"/>
		<path class="st6" d="M15.2,90.1c-0.1-2.7,1.9,1.9,5.7,4c1.7,0.9,3.4,2,4.7,2.8c-0.4,1.4-1.1,2.2-2.1,2.6c-0.2,0.1-3.4,1.5-3.4,1.5
			l-1.8-1.2l2-0.5C17.6,97.8,15.3,93.8,15.2,90.1z"/>
		<path class="st4" d="M11.8,91.6c0.1,3.9,2.6,8.1,5.6,9.3c3,1.2,5.3-1,5.2-5C22.5,92,20,87.8,17,86.6C14,85.4,11.7,87.7,11.8,91.6z
			"/>
		<path class="st7" d="M13.7,92.4c0.1,2.5,1.7,5.2,3.6,5.9c1.9,0.8,3.4-0.7,3.3-3.2s-1.7-5.2-3.6-5.9C15.1,88.4,13.7,89.8,13.7,92.4
			z"/>
		<path class="st5" d="M14.6,92.7c0,1.9,1.2,3.9,2.6,4.4c1.4,0.6,2.5-0.5,2.5-2.4s-1.2-3.9-2.6-4.4C15.7,89.8,14.6,90.8,14.6,92.7z"
			/>
	</g>
	<g>
		<polygon class="st4" points="110.5,145.7 111,146.1 111,119 110.5,119 		"/>
	</g>
	<g>
		<polygon class="st4" points="98.2,138.7 98.8,139 98.8,112 98.2,112 		"/>
	</g>
	<g>
		<polygon class="st3" points="76.9,117.2 77.5,117.5 77.5,90.4 76.9,90.4 		"/>
	</g>
	<g>
		<polygon class="st3" points="90.7,124.2 91.3,124.5 91.3,97.4 90.7,97.4 		"/>
	</g>
	<g>
		<polygon class="st3" points="62.3,108.1 62.9,108.4 62.9,81.4 62.3,81.4 		"/>
	</g>
	<g>
		<path class="st3" d="M48.3,73.1v26.3l-0.6-0.3V72.9C48,73,48.2,73,48.3,73.1z"/>
	</g>
	<g>
		<path class="st3" d="M33.8,64.5v25.9l-0.6-0.3v-26C33.4,64.2,33.6,64.3,33.8,64.5z"/>
	</g>
	<g>
		<path class="st3" d="M19.2,55.5v25.8L18.6,81V55.1C18.9,55.2,19,55.3,19.2,55.5z"/>
	</g>
	<g>
		<polygon class="st7" points="126.5,134.7 144.1,124.4 144.2,125 126.5,135.3 		"/>
		<polygon class="st7" points="126.6,136 144.2,125.8 144.3,126.5 126.6,136.8 		"/>
		<polygon class="st7" points="144.5,129.4 126.8,139.6 126.8,139 144.5,128.8 		"/>
		<polygon class="st7" points="144.4,127.3 144.4,128 126.7,138.3 126.7,137.5 		"/>
		<polygon class="st8" points="144.5,128.8 126.8,139 126.7,138.3 144.4,128 		"/>
		<polygon class="st8" points="126.6,136.8 144.3,126.5 144.4,127.3 126.7,137.5 		"/>
		<polygon class="st8" points="126.5,135.3 144.2,125 144.2,125.8 126.6,136 		"/>
	</g>
	<g>
		<path class="st6" d="M149.4,117.8l-33.7,19.5l-0.9-12.9c6.5-3.7,15.7-9,22.2-12.7C143.7,107.8,147.5,113,149.4,117.8z"/>
		<path class="st4" d="M150.9,97.6l1.3,18.6l-2.8,1.6c-1.9-4.7-5.7-10-12.4-6.2c-6.5,3.7-15.7,9-22.2,12.7l-0.4-5.6L150.9,97.6z"/>
	</g>
	<g>
		<path class="st3" d="M111.9,116.7c2,1.2,6,3.5,7.3,4.3c2.1,1.3,1.5,5.5,1.5,8.9c0,2.6-4.3,4-4.3,0c0-3.2,0-7.2,0-7.2l-5.1-2.9
			c-0.7-0.4-1.1-1.2-1.1-2l0,0L111.9,116.7z"/>
		<path class="st1" d="M119.2,120.9c0,0,0.2,0.4-0.6,0.8c-0.8,0.4-1.5,0-1.5,0l-6.9-4l1.7-1L119.2,120.9z"/>
	</g>
	<g>
		<polygon class="st2" points="113.4,74.2 87.9,89 83.2,82.4 108.8,67.6 		"/>
		<polygon class="st3" points="87.9,89 39.6,61.1 39.6,57.2 83.2,82.4 		"/>
		<polygon class="st5" points="108.8,67.6 83.2,82.4 39.6,57.2 65,42.5 		"/>
	</g>
	<path class="st4" d="M83.6,114.9v12.3l-40.8-23.6V91.3L83.6,114.9z M55.8,99.1v11.8l13.9,8v-11.8L55.8,99.1z M83.3,115.1l-13.4-7.8
		v11.8l13.4,7.8V115.1z M43,103.5l12.5,7.2V99L43,91.8V103.5z"/>
	<polygon class="st6" points="149,96.6 116.3,115.6 115.3,111.6 148.2,92.3 	"/>
</g>
</svg>
