<?xml version="1.0" encoding="utf-8"?>
<!-- Generator: Adobe Illustrator 23.0.3, SVG Export Plug-In . SVG Version: 6.00 Build 0)  -->
<svg version="1.1" id="Capa_1" xmlns="http://www.w3.org/2000/svg" xmlns:xlink="http://www.w3.org/1999/xlink" x="0px" y="0px"
	 viewBox="0 0 439.4 95.6" style="enable-background:new 0 0 439.4 95.6;" xml:space="preserve">
<style type="text/css">
	.st0{fill:#F2BD2A;}
	.st1{enable-background:new    ;}
</style>
<g>
	<g>
		<g>
			<path class="st0" d="M13.3,89.2c-5.4,0-9.8-4.4-9.8-9.8v-65c0-5.4,4.4-9.8,9.8-9.8h65c5.4,0,9.8,4.4,9.8,9.8v65
				c0,5.4-4.4,9.8-9.8,9.8H13.3z"/>
		</g>
	</g>
	<g>
		<g>
			<g>
				<path d="M36.9,57.8H35c-1.3,0-2.4,1.1-2.4,2.4s1.1,2.4,2.4,2.4h1.9c1.3,0,2.4-1.1,2.4-2.4C39.3,58.9,38.2,57.8,36.9,57.8z"/>
			</g>
			<g>
				<path d="M56.8,57.8h-1.9c-1.3,0-2.4,1.1-2.4,2.4s1.1,2.4,2.4,2.4h1.9c1.3,0,2.4-1.1,2.4-2.4S58.2,57.8,56.8,57.8z"/>
			</g>
			<g>
				<path d="M72,27.4h-4v-3.7c0-2.7-2.2-4.9-4.9-4.9H28.6c-2.7,0-4.9,2.2-4.9,4.9v3.8h-4c-1.3,0-2.4,1.1-2.4,2.4v5.7
					c0,1.3,1.1,2.4,2.4,2.4c1.2,0,2.3-1.1,2.3-2.3v-3.4h1.7v33.4c0,2.7,2.2,4.9,4.9,4.9h2.7v2.9c0,1.3,1.1,2.4,2.4,2.4
					s2.3-1.1,2.4-2.4v-2.9h19.5v2.9c0,1.3,1.1,2.4,2.4,2.4s2.4-1.1,2.4-2.4v-2.9H63c2.7,0,4.9-2.2,4.9-4.9V32.3h1.6v3.4
					c0,1.3,1.1,2.4,2.4,2.4s2.4-1.1,2.4-2.4v-5.8C74.4,28.5,73.3,27.4,72,27.4z M63.3,23.7v24.6H28.5l0.1-24.6
					C28.6,23.7,63.3,23.7,63.3,23.7z M63.3,66H28.5V53.1h34.7L63.3,66L63.3,66z"/>
			</g>
		</g>
	</g>
</g>
<g class="st1">
	<path d="M155.5,61.2c0,9.4-7.4,14.9-21.4,14.9h-27.2V21.3h25.7c13.1,0,20.2,5.6,20.2,14.2c0,5.6-2.8,9.8-7,12.1
		C151.5,49.5,155.5,54.1,155.5,61.2z M117,29.3v15.1h14.4c7,0,11-2.5,11-7.5c0-5.1-4-7.6-11-7.6H117z M145.2,60.2
		c0-5.5-4.1-7.9-11.8-7.9H117v15.8h16.4C141.1,68.1,145.2,65.7,145.2,60.2z"/>
	<path d="M163.9,52.2V21.3h10.2v30.5c0,11.3,5.1,16.1,13.9,16.1c8.8,0,13.9-4.9,13.9-16.1V21.3h10v30.9c0,16-9,24.7-23.9,24.7
		C172.9,76.9,163.9,68.2,163.9,52.2z"/>
	<path d="M219.6,70.3l3.5-7.9c4.4,3.5,11.3,6,18.1,6c8.5,0,12.1-3.1,12.1-7.1c0-11.8-32.6-4.1-32.6-24.4c0-8.8,7-16.4,22.1-16.4
		c6.6,0,13.5,1.7,18.2,4.9l-3.2,7.9c-4.9-2.9-10.3-4.3-15.1-4.3c-8.5,0-11.9,3.3-11.9,7.4c0,11.7,32.5,4.1,32.5,24.2
		c0,8.8-7.1,16.3-22.1,16.3C232.6,76.9,224.1,74.2,219.6,70.3z"/>
	<path d="M312.5,67.5v8.5h-41.1V21.3h40v8.5h-29.8v14.2h26.5v8.4h-26.5v15.1H312.5z"/>
	<path d="M317.3,70.3l3.5-7.9c4.4,3.5,11.3,6,18.1,6c8.5,0,12.1-3.1,12.1-7.1c0-11.8-32.6-4.1-32.6-24.4c0-8.8,7-16.4,22.1-16.4
		c6.6,0,13.5,1.7,18.2,4.9l-3.2,7.9c-4.9-2.9-10.3-4.3-15.1-4.3c-8.5,0-11.9,3.3-11.9,7.4c0,11.7,32.5,4.1,32.5,24.2
		c0,8.8-7.1,16.3-22.1,16.3C330.4,76.9,321.9,74.2,317.3,70.3z"/>
</g>
<g class="st1">
	<path d="M367.8,60.6V39.3h1.8v21.2c0,9.5,4.6,14.1,12.7,14.1c8,0,12.7-4.6,12.7-14.1V39.3h1.7v21.3c0,10.5-5.5,15.7-14.4,15.7
		S367.8,71,367.8,60.6z"/>
	<path d="M418.6,63.5v12.6h-1.8V63.5L402,39.3h1.9l13.9,22.5l13.9-22.5h1.9L418.6,63.5z"/>
</g>
</svg>
